# xmcd CD database file
#
# Track frame offsets:
#	150
#	16695
#	48357
#	75011
#	97258
#	116743
#	145804
#	172767
#	191594
#	225576
#	253784
#	272095
#
# Disc length: 4037 seconds
#
# Revision: 0
# Processed by: cddbd v1.5.2PL0 Copyright (c) Steve Scherf et al.
# Submitted via: CDex 1.51
#
DISCID=910fc30c
DTITLE=The Nordanians - Dr. Mysore
DYEAR=2017
DGENRE=Jazz
TTITLE0=Choro Cubano
TTITLE1=North Brown
TTITLE2=Dr. Mysore
TTITLE3=Ara
TTITLE4=Doe Open
TTITLE5=Frevo Nordo
TTITLE6=Zouman
TTITLE7=Nordanian House
TTITLE8=Sufi
TTITLE9=Cinque
TTITLE10=Floating
TTITLE11=Kat
EXTD=YEAR: 2017
EXTT0=
EXTT1=
EXTT2=
EXTT3=
EXTT4=
EXTT5=
EXTT6=
EXTT7=
EXTT8=
EXTT9=
EXTT10=
EXTT11=
PLAYORDER=
